<svg width="800" height="600" viewBox="0 0 800 600" fill="none" xmlns="http://www.w3.org/2000/svg">
  <rect width="800" height="600" rx="30" fill="url(#paint0_linear)"/>
  <path d="M0 420C120 360 220 350 320 390C420 430 520 470 620 440C720 410 780 350 800 330V600H0V420Z" fill="url(#paint1_linear)" opacity="0.85"/>
  <path d="M140 220C220 160 300 160 380 200C460 240 540 260 620 240C700 220 760 170 800 160V260C740 270 680 290 600 290C520 290 440 270 360 260C280 250 200 260 140 290V220Z" fill="url(#paint2_linear)" opacity="0.6"/>
  <defs>
    <linearGradient id="paint0_linear" x1="0" y1="0" x2="800" y2="600" gradientUnits="userSpaceOnUse">
      <stop stop-color="#F5F9FD"/>
      <stop offset="1" stop-color="#E8EFF5"/>
    </linearGradient>
    <linearGradient id="paint1_linear" x1="0" y1="320" x2="800" y2="600" gradientUnits="userSpaceOnUse">
      <stop stop-color="#B9D5E7"/>
      <stop offset="1" stop-color="#F3D0BB"/>
    </linearGradient>
    <linearGradient id="paint2_linear" x1="0" y1="160" x2="800" y2="300" gradientUnits="userSpaceOnUse">
      <stop stop-color="#C8E2EF"/>
      <stop offset="1" stop-color="#F7D9C5"/>
    </linearGradient>
  </defs>
</svg>
