<svg width="800" height="600" viewBox="0 0 800 600" fill="none" xmlns="http://www.w3.org/2000/svg">
  <rect width="800" height="600" rx="30" fill="url(#paint0_linear)"/>
  <path d="M80 160C200 120 300 140 380 190C460 240 560 250 640 210C720 170 760 100 800 90V600H0V260C20 220 40 200 80 160Z" fill="url(#paint1_linear)" opacity="0.75"/>
  <path d="M0 420C120 360 220 360 320 400C420 440 520 470 620 430C720 390 780 320 800 300V600H0V420Z" fill="url(#paint2_linear)" opacity="0.75"/>
  <defs>
    <linearGradient id="paint0_linear" x1="0" y1="0" x2="800" y2="600" gradientUnits="userSpaceOnUse">
      <stop stop-color="#F4F9FB"/>
      <stop offset="1" stop-color="#E6EEF4"/>
    </linearGradient>
    <linearGradient id="paint1_linear" x1="0" y1="120" x2="800" y2="320" gradientUnits="userSpaceOnUse">
      <stop stop-color="#C0DCEB"/>
      <stop offset="1" stop-color="#F6D8C9"/>
    </linearGradient>
    <linearGradient id="paint2_linear" x1="0" y1="300" x2="800" y2="600" gradientUnits="userSpaceOnUse">
      <stop stop-color="#BED7E6"/>
      <stop offset="1" stop-color="#F2CCB6"/>
    </linearGradient>
  </defs>
</svg>
