<svg width="800" height="560" viewBox="0 0 800 560" fill="none" xmlns="http://www.w3.org/2000/svg">
  <rect width="800" height="560" rx="24" fill="url(#paint0_linear)"/>
  <path d="M140 170C230 90 370 120 430 190C490 260 620 250 660 160C700 70 770 60 800 90V560H0V360C40 280 80 240 140 170Z" fill="url(#paint1_linear)" opacity="0.85"/>
  <path d="M60 380C140 320 210 320 290 360C370 400 450 430 520 410C590 390 660 320 760 330V560H0V440C20 410 40 400 60 380Z" fill="url(#paint2_linear)" opacity="0.75"/>
  <circle cx="620" cy="160" r="90" fill="url(#paint3_radial)" opacity="0.7"/>
  <defs>
    <linearGradient id="paint0_linear" x1="0" y1="0" x2="800" y2="560" gradientUnits="userSpaceOnUse">
      <stop stop-color="#F7FAFC"/>
      <stop offset="1" stop-color="#EEF5F8"/>
    </linearGradient>
    <linearGradient id="paint1_linear" x1="0" y1="160" x2="800" y2="360" gradientUnits="userSpaceOnUse">
      <stop stop-color="#B7D3E8"/>
      <stop offset="1" stop-color="#F7D9C8"/>
    </linearGradient>
    <linearGradient id="paint2_linear" x1="0" y1="330" x2="800" y2="560" gradientUnits="userSpaceOnUse">
      <stop stop-color="#DCE8F3"/>
      <stop offset="1" stop-color="#F4E6D6"/>
    </linearGradient>
    <radialGradient id="paint3_radial" cx="0" cy="0" r="1" gradientUnits="userSpaceOnUse" gradientTransform="translate(620 160) rotate(90) scale(90)">
      <stop stop-color="#FEE5C8"/>
      <stop offset="1" stop-color="#F5B89B" stop-opacity="0"/>
    </radialGradient>
  </defs>
</svg>
